<svg xmlns="http://www.w3.org/2000/svg" width="32" height="32" viewBox="0 0 32 32">
  <defs>
    <linearGradient id="a" x1="50%" x2="50%" y1="0%" y2="100%">
      <stop offset="0%" stop-color="#41d1ff"/>
      <stop offset="100%" stop-color="#bd34fe"/>
    </linearGradient>
    <linearGradient id="b" x1="0%" x2="100%" y1="0%" y2="0%">
      <stop offset="0%" stop-color="#ffea83"/>
      <stop offset="8.33%" stop-color="#ffdd35"/>
      <stop offset="100%" stop-color="#ffa800"/>
    </linearGradient>
  </defs>
  <circle cx="16" cy="16" r="16" fill="url(#a)"/>
  <path d="m23.3 8.29-8.95 8.96a1.5 1.5 0 0 1-2.1 0L5.25 8.29a1.5 1.5 0 0 1 0-2.1l1.42-1.42a1.5 1.5 0 0 1 2.1 0l5.38 5.38 5.38-5.38a1.5 1.5 0 0 1 2.1 0l1.42 1.42a1.5 1.5 0 0 1 0 2.1Z" fill="url(#b)"/>
</svg>
